<?xml version="1.0" encoding="UTF-8"?>
<!DOCTYPE svg PUBLIC "-//W3C//DTD SVG 1.1//EN" "http://www.w3.org/Graphics/SVG/1.1/DTD/svg11.dtd">
<!-- Creator: CorelDRAW (OEM Version) -->
<svg xmlns="http://www.w3.org/2000/svg" xml:space="preserve" width="134px" height="50px" version="1.1" style="shape-rendering:geometricPrecision; text-rendering:geometricPrecision; image-rendering:optimizeQuality; fill-rule:evenodd; clip-rule:evenodd"
viewBox="0 0 7.03 2.62"
 xmlns:xlink="http://www.w3.org/1999/xlink"
 xmlns:xodm="http://www.corel.com/coreldraw/odm/2003">
 <defs>
  <style type="text/css">
   <![CDATA[
    .fil0 {fill:#DCD8CE}
    .fil1 {fill:#DCD8CE;fill-rule:nonzero}
   ]]>
  </style>
 </defs>
 <g id="Camada_x0020_1">
  <metadata id="CorelCorpID_0Corel-Layer"/>
  <path class="fil0" d="M1.84 1.14c-0.07,-0.09 -0.17,-0.15 -0.28,-0.18 -0.06,0.33 -0.33,0.59 -0.66,0.65 0.23,-0.06 0.4,-0.55 0.4,-0.8 0,-0.3 -0.28,-0.53 -0.57,-0.53 -0.82,0 -0.47,1.57 -0.45,2.16 -0.17,-0.68 -0.74,-2.44 0.48,-2.44 0.41,0 0.74,0.3 0.8,0.68 0.07,0.01 0.14,0.03 0.2,0.06 0.51,0.22 0.67,0.86 0.22,1.26 -0.1,0.08 -0.21,0.15 -0.32,0.2 -0.34,0.14 -0.9,0.12 -1.23,0.09 0.23,-0.01 0.65,-0.01 0.99,-0.11 0.21,-0.07 0.39,-0.17 0.48,-0.35 0.11,-0.21 0.1,-0.51 -0.06,-0.69z"/>
  <path class="fil1" d="M2.8 1.37c-0.27,0 -0.46,0.19 -0.46,0.46 0,0.27 0.19,0.46 0.46,0.46 0.16,0 0.29,-0.06 0.38,-0.15l-0.11 -0.11c-0.06,0.06 -0.15,0.1 -0.25,0.1 -0.14,0 -0.25,-0.09 -0.28,-0.22l0.68 0c0.03,-0.33 -0.1,-0.54 -0.42,-0.54zm-0.26 0.39c0.02,-0.14 0.12,-0.23 0.26,-0.23 0.15,0 0.25,0.09 0.25,0.23l-0.51 0zm1.62 0.52l0 -0.59c0,-0.2 -0.13,-0.32 -0.37,-0.32 -0.17,0 -0.26,0.04 -0.39,0.12l0.08 0.13c0.09,-0.06 0.18,-0.09 0.27,-0.09 0.14,0 0.22,0.07 0.22,0.18l0 0.03 -0.28 0c-0.21,0 -0.34,0.11 -0.34,0.27 0,0.16 0.12,0.28 0.32,0.28 0.13,0 0.23,-0.04 0.3,-0.12l0 0.11 0.19 0zm-0.45 -0.14c-0.11,0 -0.17,-0.06 -0.17,-0.14 0,-0.08 0.05,-0.12 0.18,-0.12l0.25 0 0 0.08c-0.01,0.1 -0.12,0.18 -0.26,0.18zm1.34 -0.76l0 0.44c0,0.16 -0.09,0.28 -0.25,0.29 -0.13,0 -0.21,-0.09 -0.21,-0.22l0 -0.51 -0.2 0 0 0.56c0,0.22 0.13,0.35 0.34,0.35 0.14,0 0.26,-0.06 0.32,-0.18l0 0.17 0.19 0 0 -0.9 -0.19 0zm0.95 0.7c-0.06,0.02 -0.1,0.03 -0.14,0.03 -0.06,0 -0.1,-0.02 -0.1,-0.12l0 -0.43 0.27 0 0 -0.15 -0.27 0 0 -0.25 -0.19 0 0 0.25 -0.13 0 0 0.15 0.13 0 0 0.47c0,0.18 0.12,0.26 0.25,0.26 0.08,0 0.15,-0.02 0.22,-0.07l-0.04 -0.14zm0.76 -0.05l0.12 -0.29 0.15 -0.36 -0.2 0 -0.25 0.68 -0.27 -0.68 -0.2 0 0.37 0.89c-0.06,0.13 -0.19,0.4 -0.37,0.27 0.06,0.06 0.13,0.08 0.21,0.08 0.21,0 0.37,-0.41 0.44,-0.59z"/>
 </g>
</svg>
